<svg width="100" height="100" viewBox="0 0 100 100" fill="none" xmlns="http://www.w3.org/2000/svg">
<circle cx="50" cy="50" r="50" fill="#FF8383" fill-opacity="0.4"/>
<path d="M50 43.7503V52.0836M34.1227 56.6665C32.2281 59.9482 31.281 61.5896 31.4225 62.936C31.546 64.1104 32.1623 65.1774 33.1177 65.8715C34.2126 66.667 36.1061 66.667 39.8928 66.667H60.1072C63.8939 66.667 65.7871 66.667 66.882 65.8715C67.8374 65.1774 68.454 64.1104 68.5775 62.936C68.719 61.5896 67.7722 59.9482 65.8776 56.6665L55.7739 39.1665C53.8793 35.8849 52.9315 34.2444 51.6947 33.6937C50.616 33.2134 49.3833 33.2134 48.3046 33.6937C47.0683 34.2441 46.1211 35.8847 44.228 39.1636L34.1227 56.6665ZM50.1058 58.3336V58.5419L49.8962 58.5424V58.3336H50.1058Z" stroke="#FF0000" stroke-width="2" stroke-linecap="round" stroke-linejoin="round"/>
</svg>
